<svg xmlns="http://www.w3.org/2000/svg" width="300.205" height="301.544" viewBox="0 0 79.429234 79.783521"><path d="m21.933 67.127 1.204.714a32.82 32.82 0 0 0 16.732 4.583h.011c18.116 0 32.864-14.743 32.87-32.864.005-8.782-3.413-17.036-9.62-23.25-6.208-6.212-14.456-9.636-23.238-9.636-18.133 0-32.875 14.742-32.886 32.858a32.75 32.75 0 0 0 5.026 17.486l.782 1.242L9.49 70.388zM0 79.783l5.606-20.488a39.45 39.45 0 0 1-5.28-19.763C.337 17.733 18.076 0 39.875 0c10.581 0 20.51 4.116 27.977 11.594C75.32 19.066 79.43 28.995 79.43 39.56c-.011 21.798-17.756 39.538-39.549 39.538h-.016a39.501 39.501 0 0 1-18.898-4.813z" class="st1" style="fill:#25d366;fill-opacity:1;stroke-width:.0562251"/><path d="M29.996 23.007c-.742-1.647-1.518-1.68-2.22-1.709-.574-.022-1.238-.022-1.896-.022-.657 0-1.731.247-2.637 1.237-.905.99-3.457 3.379-3.457 8.242 0 4.864 3.542 9.558 4.037 10.222.494.658 6.837 10.953 16.878 14.916 8.35 3.29 10.048 2.637 11.858 2.474 1.81-.163 5.848-2.39 6.669-4.694.82-2.306.82-4.285.579-4.7-.248-.411-.906-.659-1.895-1.153-.99-.495-5.848-2.885-6.753-3.217-.905-.331-1.563-.494-2.226.495-.658.99-2.553 3.216-3.126 3.874-.574.658-1.153.742-2.143.248-.99-.495-4.171-1.541-7.944-4.903-2.935-2.62-4.92-5.853-5.499-6.843-.573-.99-.062-1.524.433-2.018.444-.445.99-1.153 1.484-1.732.495-.58.658-.99.99-1.648.332-.657.163-1.236-.084-1.731-.253-.495-2.17-5.381-3.048-7.338" class="st4" style="clip-rule:evenodd;fill:#25d366;fill-opacity:1;fill-rule:evenodd;stroke-width:.0562251"/></svg>