<svg xmlns="http://www.w3.org/2000/svg" xmlns:xlink="http://www.w3.org/1999/xlink" aria-hidden="true" role="img" class="iconify iconify--logos" width="32" height="32" preserveAspectRatio="xMidYMid meet" viewBox="0 0 256 257"><defs><linearGradient id="IconifyId1813088fe1fbc01fb466" x1="-.828%" x2="57.636%" y1="7.652%" y2="78.411%"><stop offset="0%" stop-color="#41D1FF"></stop><stop offset="100%" stop-color="#BD34FE"></stop></linearGradient><linearGradient id="IconifyId1813088fe1fbc01fb467" x1="43.376%" x2="50.316%" y1="2.242%" y2="89.03%"><stop offset="0%" stop-color="#FFEA83"></stop><stop offset="8.333%" stop-color="#FFDD35"></stop><stop offset="100%" stop-color="#FFA800"></stop></linearGradient></defs><path fill="url(#IconifyId1813088fe1fbc01fb466)" d="M255.153 37.938L194.836 1.936C190.76.399 186.365.399 182.289 1.936L121.972 37.938c-4.076 1.537-6.601 5.67-6.601 10.199v127.906c0 4.529 2.525 8.662 6.601 10.199l61.283 36.002c4.076 1.537 8.471 1.537 12.547 0l61.283-36.002c4.076-1.537 6.601-5.67 6.601-10.199V48.137c0-4.529-2.525-8.662-6.601-10.199z"></path><path fill="url(#IconifyId1813088fe1fbc01fb467)" d="M185.432 255.908l54.105-31.736c2.801-1.644 4.427-4.734 4.427-7.96V71.677c0-3.226-1.626-6.316-4.427-7.96l-54.105-31.736c-2.801-1.644-6.234-1.644-9.035 0L122.294 63.716c-2.8 1.644-4.426 4.734-4.426 7.96v144.535c0 3.226 1.626 6.316 4.426 7.96l54.103 31.736c2.8 1.644 6.234 1.644 9.035 0z"></path></svg>


